<?xml version="1.0" standalone="no"?>
<!DOCTYPE svg PUBLIC "-//W3C//DTD SVG 20010904//EN"
 "http://www.w3.org/TR/2001/REC-SVG-20010904/DTD/svg10.dtd">
<svg version="1.0" xmlns="http://www.w3.org/2000/svg"
 width="260.000000pt" height="260.000000pt" viewBox="0 0 260.000000 260.000000"
 preserveAspectRatio="xMidYMid meet">
<metadata>
Created by potrace 1.11, written by Peter Selinger 2001-2013
</metadata>
<g transform="translate(0.000000,260.000000) scale(0.100000,-0.100000)"
fill="#000000" stroke="none">
<path d="M0 1300 l0 -1300 1300 0 1300 0 0 1300 0 1300 -1300 0 -1300 0 0
-1300z m987 443 c143 -159 271 -301 285 -317 l24 -29 290 317 289 316 67 0 68
0 0 -730 0 -730 -190 0 -190 0 0 323 -1 322 -157 -163 c-86 -89 -164 -163
-174 -162 -9 0 -86 73 -172 163 l-156 162 0 -322 0 -323 -190 0 -190 0 0 730
0 730 69 0 69 0 259 -287z"/>
</g>
</svg>
